<svg width="32" height="12" viewBox="0 0 32 12" fill="none" xmlns="http://www.w3.org/2000/svg">
<path d="M8.28125 11.0391H0.390625V0.0234375H2.03125V9.39844H8.28125V11.0391ZM9.48438 11.0391V0.0234375H11.125V11.0391H9.48438ZM11.9062 0.984375L13.3516 0.28125H13.3984L16.6484 8.11719L19.8828 0.273438L21.3359 0.914062H21.3984L17.4609 10.4297L17.4375 10.4219C17.4167 10.5469 17.3464 10.6719 17.2266 10.7969C17.0651 10.9583 16.8698 11.0391 16.6406 11.0391C16.4167 11.0391 16.2266 10.9583 16.0703 10.7969C15.9557 10.6875 15.8828 10.5729 15.8516 10.4531L11.9062 0.984375ZM29.2891 6.35156H23.8125V9.39844H31.625V11.0391H22.1719V0.0234375H31.625V1.66406H23.8125V4.71094H29.2891V6.35156Z" fill="white"/>
</svg>
