<svg width="35" height="35" viewBox="0 0 35 35" fill="none" xmlns="http://www.w3.org/2000/svg">
<path d="M27.1104 8.58959C25.3166 7.75834 23.4062 7.14584 21.3937 6.79584C21.1458 7.23334 20.8541 7.83125 20.6645 8.3125C18.5354 7.99167 16.4208 7.99167 14.3354 8.3125C14.1312 7.83125 13.8395 7.23334 13.5916 6.79584C11.5791 7.14584 9.66872 7.75834 7.87497 8.58959C4.2583 14.0438 3.28122 19.3667 3.76247 24.6021C6.16872 26.3958 8.48747 27.475 10.777 28.1896C11.3458 27.4167 11.8416 26.5854 12.2791 25.725C11.4479 25.4188 10.6604 25.025 9.91663 24.5729C10.1208 24.4271 10.3104 24.2667 10.5 24.1208C15.0645 26.25 20.0083 26.25 24.5145 24.1208C24.7041 24.2813 24.8937 24.4271 25.0979 24.5729C24.3541 25.025 23.552 25.4042 22.7354 25.725C23.1729 26.5854 23.6687 27.4167 24.2375 28.1896C26.5271 27.475 28.8604 26.3958 31.2521 24.6021C31.8208 18.5208 30.275 13.2563 27.1396 8.58959H27.1104ZM12.8916 21.3938C11.5208 21.3938 10.3979 20.125 10.3979 18.5646C10.3979 17.0042 11.4916 15.7354 12.8916 15.7354C14.2916 15.7354 15.4 17.0042 15.3854 18.5646C15.3854 20.1104 14.2916 21.3938 12.8916 21.3938ZM22.0937 21.3938C20.7229 21.3938 19.6 20.125 19.6 18.5646C19.6 17.0042 20.6937 15.7354 22.0937 15.7354C23.4937 15.7354 24.602 17.0042 24.5875 18.5646C24.5875 20.1104 23.4937 21.3938 22.0937 21.3938Z" fill="white"/>
</svg>
