<svg width="50" height="50" viewBox="0 0 50 50" fill="none" xmlns="http://www.w3.org/2000/svg">
<path d="M17.7083 30.2083C19.0897 30.2083 20.4144 29.6596 21.3912 28.6828C22.3679 27.7061 22.9167 26.3813 22.9167 25C22.9167 22.125 21.875 20.8333 20.8333 18.75C18.6 14.2854 20.3667 10.3042 25 6.25C26.0417 11.4583 29.1667 16.4583 33.3333 19.7917C37.5 23.125 39.5833 27.0833 39.5833 31.25C39.5833 33.1651 39.2061 35.0615 38.4732 36.8308C37.7404 38.6001 36.6661 40.2078 35.312 41.562C33.9578 42.9162 32.3501 43.9904 30.5808 44.7232C28.8115 45.4561 26.9151 45.8333 25 45.8333C23.0849 45.8333 21.1885 45.4561 19.4192 44.7232C17.6499 43.9904 16.0422 42.9162 14.688 41.562C13.3338 40.2078 12.2596 38.6001 11.5267 36.8308C10.7939 35.0615 10.4167 33.1651 10.4167 31.25C10.4167 28.8479 11.3187 26.4708 12.5 25C12.5 26.3813 13.0487 27.7061 14.0255 28.6828C15.0022 29.6596 16.327 30.2083 17.7083 30.2083Z" fill="url(#paint0_linear_5_4)" stroke="url(#paint1_linear_5_4)" stroke-width="5" stroke-linecap="round" stroke-linejoin="round"/>
<defs>
<linearGradient id="paint0_linear_5_4" x1="43" y1="16.5" x2="5.5" y2="42.5" gradientUnits="userSpaceOnUse">
<stop offset="0.116" stop-color="#81ACF8"/>
<stop offset="0.556" stop-color="#E088FB"/>
<stop offset="1" stop-color="#FF7AE4"/>
</linearGradient>
<linearGradient id="paint1_linear_5_4" x1="43" y1="16.5" x2="5.5" y2="42.5" gradientUnits="userSpaceOnUse">
<stop offset="0.116" stop-color="#81ACF8"/>
<stop offset="0.556" stop-color="#E088FB"/>
<stop offset="1" stop-color="#FF7AE4"/>
</linearGradient>
</defs>
</svg>
