<svg width="35" height="35" viewBox="0 0 35 35" fill="none" xmlns="http://www.w3.org/2000/svg">
<path d="M3.64578 24.7917C2.62702 19.9839 2.62702 15.0161 3.64578 10.2083C3.77964 9.7201 4.03828 9.27511 4.39625 8.91713C4.75423 8.55916 5.19921 8.30052 5.68745 8.16667C13.5091 6.87088 21.4908 6.87088 29.3125 8.16667C29.8007 8.30052 30.2457 8.55916 30.6036 8.91713C30.9616 9.27511 31.2203 9.7201 31.3541 10.2083C32.3729 15.0161 32.3729 19.9839 31.3541 24.7917C31.2203 25.2799 30.9616 25.7249 30.6036 26.0829C30.2457 26.4408 29.8007 26.6995 29.3125 26.8333C21.4908 28.1294 13.5091 28.1294 5.68745 26.8333C5.19921 26.6995 4.75423 26.4408 4.39625 26.0829C4.03828 25.7249 3.77964 25.2799 3.64578 24.7917Z" fill="white" stroke="white" stroke-width="2" stroke-linecap="round" stroke-linejoin="round"/>
<path d="M14.5834 21.875L21.875 17.5L14.5834 13.125V21.875Z" fill="url(#paint0_linear_30_117)"/>
<defs>
<linearGradient id="paint0_linear_30_117" x1="22.7292" y1="15.3908" x2="14.133" y2="22.1313" gradientUnits="userSpaceOnUse">
<stop offset="0.116" stop-color="#81ACF8"/>
<stop offset="0.556" stop-color="#E088FB"/>
<stop offset="1" stop-color="#FF7AE4"/>
</linearGradient>
</defs>
</svg>
