<svg width="65" height="65" viewBox="0 0 65 65" fill="none" xmlns="http://www.w3.org/2000/svg">
<g clip-path="url(#clip0_314_245)">
<path d="M39.495 16.3819C39.6434 16.2825 39.8157 16.2246 39.994 16.2144C40.1723 16.2042 40.3501 16.2421 40.5088 16.3241C40.6675 16.4061 40.8013 16.5291 40.8963 16.6804C40.9912 16.8317 41.0438 17.0057 41.0485 17.1843L41.1507 29.8263C41.1567 30.1209 41.2278 30.4105 41.359 30.6743C41.4902 30.9382 41.6782 31.1697 41.9094 31.3523C42.1407 31.5349 42.4095 31.664 42.6966 31.7304C42.9837 31.7967 43.2819 31.7987 43.5699 31.7362L54.5107 29.1559C54.7174 29.1127 54.9326 29.1362 55.1251 29.223C55.3177 29.3099 55.4777 29.4556 55.5822 29.6391C55.6867 29.8227 55.7302 30.0347 55.7066 30.2446C55.6829 30.4545 55.5932 30.6515 55.4505 30.8072L41.04 46.3817C40.7454 46.7005 40.3548 46.9146 39.9276 46.9915C39.5003 47.0684 39.0596 47.0039 38.6723 46.8077L16.7159 35.4676C16.3313 35.2655 16.0231 34.9435 15.8381 34.5504C15.6532 34.1572 15.6015 33.7145 15.6911 33.2894L20.0508 12.526C20.0951 12.3195 20.2038 12.1324 20.3613 11.9916C20.5187 11.8508 20.7168 11.7636 20.927 11.7425C21.1372 11.7214 21.3486 11.7676 21.5309 11.8743C21.7132 11.9811 21.8569 12.1429 21.9413 12.3366L26.1684 22.7508C26.284 23.0218 26.4583 23.2639 26.6786 23.4595C26.8989 23.6552 27.1598 23.7997 27.4425 23.8826C27.7253 23.9655 28.0229 23.9848 28.314 23.939C28.6051 23.8933 28.8824 23.7836 29.1261 23.618L39.495 16.3819Z" fill="url(#paint0_linear_314_245)" stroke="url(#paint1_linear_314_245)" stroke-width="2" stroke-linecap="round" stroke-linejoin="round"/>
</g>
<defs>
<linearGradient id="paint0_linear_314_245" x1="59.0756" y1="34.0528" x2="18.3403" y2="53.9632" gradientUnits="userSpaceOnUse">
<stop offset="0.116" stop-color="#81ACF8"/>
<stop offset="0.556" stop-color="#E088FB"/>
<stop offset="1" stop-color="#FF7AE4"/>
</linearGradient>
<linearGradient id="paint1_linear_314_245" x1="59.0756" y1="34.0528" x2="18.3403" y2="53.9632" gradientUnits="userSpaceOnUse">
<stop offset="0.116" stop-color="#81ACF8"/>
<stop offset="0.556" stop-color="#E088FB"/>
<stop offset="1" stop-color="#FF7AE4"/>
</linearGradient>
<clipPath id="clip0_314_245">
<rect width="47.9031" height="47.9031" fill="white" transform="translate(21.9824) rotate(27.3157)"/>
</clipPath>
</defs>
</svg>
