<svg width="40" height="40" viewBox="0 0 40 40" fill="none" xmlns="http://www.w3.org/2000/svg">
<path d="M25 3.33331H10C9.11597 3.33331 8.26812 3.6845 7.643 4.30962C7.01788 4.93474 6.66669 5.78259 6.66669 6.66665V33.3333C6.66669 34.2174 7.01788 35.0652 7.643 35.6903C8.26812 36.3155 9.11597 36.6666 10 36.6666H30C30.8841 36.6666 31.7319 36.3155 32.357 35.6903C32.9822 35.0652 33.3334 34.2174 33.3334 33.3333V11.6666L25 3.33331Z" stroke="url(#paint0_linear_7_83)" stroke-width="5" stroke-linecap="round" stroke-linejoin="round"/>
<path d="M23.3333 3.33331V9.99998C23.3333 10.884 23.6845 11.7319 24.3096 12.357C24.9347 12.9821 25.7826 13.3333 26.6666 13.3333H33.3333" stroke="url(#paint1_linear_7_83)" stroke-width="5" stroke-linecap="round" stroke-linejoin="round"/>
<path d="M15 25H25" stroke="url(#paint2_linear_7_83)" stroke-width="5" stroke-linecap="round" stroke-linejoin="round"/>
<defs>
<linearGradient id="paint0_linear_7_83" x1="36.4572" y1="11.9649" x2="4.05222" y2="36.3581" gradientUnits="userSpaceOnUse">
<stop offset="0.116" stop-color="#81ACF8"/>
<stop offset="0.556" stop-color="#E088FB"/>
<stop offset="1" stop-color="#FF7AE4"/>
</linearGradient>
<linearGradient id="paint1_linear_7_83" x1="34.5047" y1="5.92279" x2="24.4073" y2="15.424" gradientUnits="userSpaceOnUse">
<stop offset="0.116" stop-color="#81ACF8"/>
<stop offset="0.556" stop-color="#E088FB"/>
<stop offset="1" stop-color="#FF7AE4"/>
</linearGradient>
<linearGradient id="paint2_linear_7_83" x1="26.1714" y1="25.2589" x2="25.9588" y2="27.2596" gradientUnits="userSpaceOnUse">
<stop offset="0.116" stop-color="#81ACF8"/>
<stop offset="0.556" stop-color="#E088FB"/>
<stop offset="1" stop-color="#FF7AE4"/>
</linearGradient>
</defs>
</svg>
