<svg width="40" height="40" viewBox="0 0 40 40" fill="none" xmlns="http://www.w3.org/2000/svg">
<path d="M18.3333 25H21.6667C22.5507 25 23.3986 24.6489 24.0237 24.0237C24.6488 23.3986 25 22.5508 25 21.6667C25 20.7827 24.6488 19.9348 24.0237 19.3097C23.3986 18.6846 22.5507 18.3334 21.6667 18.3334H16.6667C15.6667 18.3334 14.8333 18.6667 14.3333 19.3334L5 28.3334" stroke="url(#paint0_linear_117_508)" stroke-width="4" stroke-linecap="round" stroke-linejoin="round"/>
<path d="M11.6667 35L14.3333 32.6666C14.8333 32 15.6667 31.6666 16.6667 31.6666H23.3333C25.1667 31.6666 26.8333 31 28 29.6666L35.6667 22.3333C36.3098 21.7255 36.6852 20.8871 36.7102 20.0026C36.7352 19.118 36.4078 18.2598 35.8 17.6166C35.1922 16.9735 34.3538 16.5981 33.4693 16.5731C32.5847 16.5481 31.7265 16.8755 31.0833 17.4833L24.0833 23.9833" stroke="url(#paint1_linear_117_508)" stroke-width="4" stroke-linecap="round" stroke-linejoin="round"/>
<path d="M3.33334 26.6666L13.3333 36.6666" stroke="url(#paint2_linear_117_508)" stroke-width="4" stroke-linecap="round" stroke-linejoin="round"/>
<path d="M26.6667 19.8333C29.3361 19.8333 31.5 17.6693 31.5 15C31.5 12.3306 29.3361 10.1666 26.6667 10.1666C23.9973 10.1666 21.8333 12.3306 21.8333 15C21.8333 17.6693 23.9973 19.8333 26.6667 19.8333Z" stroke="url(#paint3_linear_117_508)" stroke-width="4" stroke-linecap="round" stroke-linejoin="round"/>
<path d="M10 13.3334C12.7614 13.3334 15 11.0948 15 8.33337C15 5.57195 12.7614 3.33337 10 3.33337C7.23858 3.33337 5 5.57195 5 8.33337C5 11.0948 7.23858 13.3334 10 13.3334Z" stroke="url(#paint4_linear_117_508)" stroke-width="4" stroke-linecap="round" stroke-linejoin="round"/>
<defs>
<linearGradient id="paint0_linear_117_508" x1="27.3429" y1="20.9228" x2="18.9591" y2="36.7003" gradientUnits="userSpaceOnUse">
<stop offset="0.116" stop-color="#81ACF8"/>
<stop offset="0.556" stop-color="#E088FB"/>
<stop offset="1" stop-color="#FF7AE4"/>
</linearGradient>
<linearGradient id="paint1_linear_117_508" x1="39.6453" y1="21.3437" x2="21.5529" y2="44.4804" gradientUnits="userSpaceOnUse">
<stop offset="0.116" stop-color="#81ACF8"/>
<stop offset="0.556" stop-color="#E088FB"/>
<stop offset="1" stop-color="#FF7AE4"/>
</linearGradient>
<linearGradient id="paint2_linear_117_508" x1="14.5048" y1="29.2561" x2="4.40729" y2="38.7574" gradientUnits="userSpaceOnUse">
<stop offset="0.116" stop-color="#81ACF8"/>
<stop offset="0.556" stop-color="#E088FB"/>
<stop offset="1" stop-color="#FF7AE4"/>
</linearGradient>
<linearGradient id="paint3_linear_117_508" x1="32.6324" y1="12.6698" x2="22.8715" y2="21.8543" gradientUnits="userSpaceOnUse">
<stop offset="0.116" stop-color="#81ACF8"/>
<stop offset="0.556" stop-color="#E088FB"/>
<stop offset="1" stop-color="#FF7AE4"/>
</linearGradient>
<linearGradient id="paint4_linear_117_508" x1="16.1714" y1="5.92285" x2="6.07394" y2="15.4241" gradientUnits="userSpaceOnUse">
<stop offset="0.116" stop-color="#81ACF8"/>
<stop offset="0.556" stop-color="#E088FB"/>
<stop offset="1" stop-color="#FF7AE4"/>
</linearGradient>
</defs>
</svg>
