<svg width="21" height="13" viewBox="0 0 21 13" fill="none" xmlns="http://www.w3.org/2000/svg">
<rect x="0.732891" y="10.2826" width="20.4947" height="0.6" rx="0.3" transform="rotate(-24.3765 0.732891 10.2826)" fill="black" stroke="#FBFBFB" stroke-width="0.6"/>
<path d="M4.9008 11.7C2.0998 8.81621 2.0998 4.08381 4.9008 1.20001" stroke="#FBFBFB" stroke-linecap="round" stroke-linejoin="round"/>
<path d="M6.98341 9.55566C5.33154 7.85495 5.33154 5.04509 6.98341 3.27045" stroke="#FBFBFB" stroke-linecap="round" stroke-linejoin="round"/>
<path d="M10 7.92888C10.7933 7.92888 11.4364 7.26676 11.4364 6.45C11.4364 5.63324 10.7933 4.97113 10 4.97113C9.2067 4.97113 8.5636 5.63324 8.5636 6.45C8.5636 7.26676 9.2067 7.92888 10 7.92888Z" stroke="#FBFBFB" stroke-linecap="round" stroke-linejoin="round"/>
<path d="M13.0162 3.3443C14.6681 5.045 14.6681 7.85486 13.0162 9.62951" stroke="#FBFBFB" stroke-linecap="round" stroke-linejoin="round"/>
<path d="M15.0992 1.20001C17.9002 4.08381 17.9002 8.74227 15.0992 11.6261" stroke="#FBFBFB" stroke-linecap="round" stroke-linejoin="round"/>
</svg>
