<svg width="50" height="50" viewBox="0 0 50 50" fill="none" xmlns="http://www.w3.org/2000/svg">
<path d="M13.8957 29.1667H8.33317C6.0415 29.1667 4.1665 31.0417 4.1665 33.3334V43.75C4.1665 44.8959 5.104 45.8334 6.24984 45.8334H13.8957C15.0415 45.8334 15.979 44.8959 15.979 43.75V31.25C15.979 30.1042 15.0415 29.1667 13.8957 29.1667Z" fill="url(#paint0_linear_314_206)"/>
<path d="M27.7712 20.8333H22.2087C19.917 20.8333 18.042 22.7083 18.042 25V43.75C18.042 44.8958 18.9795 45.8333 20.1253 45.8333H29.8546C31.0004 45.8333 31.9379 44.8958 31.9379 43.75V25C31.9379 22.7083 30.0837 20.8333 27.7712 20.8333Z" fill="url(#paint1_linear_314_206)"/>
<path d="M41.6668 35.4167H36.1043C34.9585 35.4167 34.021 36.3542 34.021 37.5V43.75C34.021 44.8959 34.9585 45.8334 36.1043 45.8334H43.7502C44.896 45.8334 45.8335 44.8959 45.8335 43.75V39.5834C45.8335 37.2917 43.9585 35.4167 41.6668 35.4167Z" fill="url(#paint2_linear_314_206)"/>
<path d="M31.2698 10.1052C31.9156 9.45932 32.1656 8.68849 31.9573 8.02182C31.749 7.35515 31.1031 6.87599 30.1865 6.73015L28.1865 6.39682C28.1031 6.39682 27.9156 6.25099 27.874 6.16765L26.7698 3.95932C25.9365 2.27182 24.0406 2.27182 23.2073 3.95932L22.1031 6.16765C22.0823 6.25099 21.8948 6.39682 21.8115 6.39682L19.8114 6.73015C18.8947 6.87599 18.2697 7.35515 18.0405 8.02182C17.8322 8.68849 18.0822 9.45932 18.728 10.1052L20.2697 11.6677C20.353 11.7302 20.4155 11.9802 20.3947 12.0635L19.9572 13.9802C19.6239 15.4177 20.1655 16.0635 20.5197 16.3135C20.874 16.5635 21.6448 16.8968 22.9156 16.1468L24.7906 15.0427C24.874 14.9802 25.1448 14.9802 25.2281 15.0427L27.0823 16.1468C27.6656 16.501 28.1448 16.6052 28.5198 16.6052C28.9573 16.6052 29.2698 16.4385 29.4573 16.3135C29.8115 16.0635 30.3531 15.4177 30.0198 13.9802L29.5823 12.0635C29.5615 11.9593 29.624 11.7302 29.7073 11.6677L31.2698 10.1052Z" fill="url(#paint3_linear_314_206)"/>
<defs>
<linearGradient id="paint0_linear_314_206" x1="17.3628" y1="33.4825" x2="1.79729" y2="43.8631" gradientUnits="userSpaceOnUse">
<stop offset="0.116" stop-color="#81ACF8"/>
<stop offset="0.556" stop-color="#E088FB"/>
<stop offset="1" stop-color="#FF7AE4"/>
</linearGradient>
<linearGradient id="paint1_linear_314_206" x1="33.5657" y1="27.307" x2="12.7933" y2="38.1713" gradientUnits="userSpaceOnUse">
<stop offset="0.116" stop-color="#81ACF8"/>
<stop offset="0.556" stop-color="#E088FB"/>
<stop offset="1" stop-color="#FF7AE4"/>
</linearGradient>
<linearGradient id="paint2_linear_314_206" x1="47.2173" y1="38.1141" x2="36.7017" y2="49.3346" gradientUnits="userSpaceOnUse">
<stop offset="0.116" stop-color="#81ACF8"/>
<stop offset="0.556" stop-color="#E088FB"/>
<stop offset="1" stop-color="#FF7AE4"/>
</linearGradient>
<linearGradient id="paint3_linear_314_206" x1="33.6761" y1="6.29668" x2="19.6183" y2="19.6635" gradientUnits="userSpaceOnUse">
<stop offset="0.116" stop-color="#81ACF8"/>
<stop offset="0.556" stop-color="#E088FB"/>
<stop offset="1" stop-color="#FF7AE4"/>
</linearGradient>
</defs>
</svg>
