<svg width="80" height="80" viewBox="0 0 80 80" fill="none" xmlns="http://www.w3.org/2000/svg">
<path d="M44.3332 27.0344L48.7332 35.8343C49.3332 37.0343 50.9332 38.2343 52.2665 38.4343L60.2332 39.7677C65.3332 40.6343 66.5332 44.301 62.8665 47.9677L56.6665 54.201C55.6332 55.2343 55.0332 57.2677 55.3665 58.7343L57.1332 66.4343C58.5332 72.501 55.2998 74.8677 49.9332 71.701L42.4665 67.2677C41.0998 66.4677 38.8998 66.4677 37.5332 67.2677L30.0331 71.6677C24.6664 74.8343 21.4331 72.4677 22.8331 66.401L24.5997 58.701C24.9331 57.2677 24.3331 55.2343 23.2997 54.1677L17.1331 48.001C13.4664 44.3343 14.6664 40.6343 19.7664 39.801L27.7331 38.4677C29.0664 38.2343 30.6664 37.0677 31.2664 35.8677L35.6665 27.0677C38.0332 22.2677 41.9665 22.2677 44.3332 27.0344Z" fill="#FFD343"/>
<path d="M20 32.5C18.6333 32.5 17.5 31.3667 17.5 30V6.66666C17.5 5.3 18.6333 4.16666 20 4.16666C21.3667 4.16666 22.5 5.3 22.5 6.66666V30C22.5 31.3667 21.3667 32.5 20 32.5Z" fill="#FFD343"/>
<path d="M60 32.5C58.6333 32.5 57.5 31.3667 57.5 30V6.66666C57.5 5.3 58.6333 4.16666 60 4.16666C61.3667 4.16666 62.5 5.3 62.5 6.66666V30C62.5 31.3667 61.3667 32.5 60 32.5Z" fill="#FFD343"/>
<path d="M40 15.8333C38.6333 15.8333 37.5 14.7 37.5 13.3333V6.66666C37.5 5.3 38.6333 4.16666 40 4.16666C41.3667 4.16666 42.5 5.3 42.5 6.66666V13.3333C42.5 14.7 41.3667 15.8333 40 15.8333Z" fill="#FFD343"/>
</svg>
