<svg width="40" height="40" viewBox="0 0 40 40" fill="none" xmlns="http://www.w3.org/2000/svg">
<g clip-path="url(#clip0_1_30)">
<path d="M13.4667 33.3333C15.9312 33.4158 18.3872 33.0034 20.6896 32.1205C22.992 31.2376 25.094 29.9021 26.8715 28.193C28.649 26.4839 30.0658 24.4358 31.0383 22.1698C32.0108 19.9038 32.5191 17.4658 32.5333 15C33.6628 13.6023 34.5014 11.993 35 10.2667C35.0372 10.1303 35.0342 9.98601 34.9914 9.85128C34.9485 9.71655 34.8676 9.59708 34.7584 9.50727C34.6492 9.41745 34.5164 9.36111 34.3759 9.34504C34.2355 9.32896 34.0933 9.35383 33.9667 9.41666C33.3758 9.70108 32.7106 9.79296 32.0648 9.67933C31.4189 9.56571 30.825 9.25233 30.3667 8.78333C29.7816 8.14262 29.0739 7.62588 28.2854 7.2637C27.497 6.90153 26.6438 6.7013 25.7766 6.67488C24.9093 6.64846 24.0456 6.79638 23.2366 7.10989C22.4275 7.42339 21.6897 7.89609 21.0667 8.49999C20.2137 9.32609 19.5889 10.3588 19.253 11.4978C18.9172 12.6368 18.8817 13.8432 19.15 15C13.5667 15.3333 9.73334 12.6833 6.66667 9.04999C6.57455 8.94566 6.45403 8.87041 6.31985 8.83344C6.18566 8.79647 6.04361 8.79937 5.91105 8.84179C5.77849 8.88421 5.66114 8.96431 5.57335 9.07232C5.48556 9.18033 5.43112 9.31156 5.41667 9.44999C4.83246 12.6907 5.25389 16.0326 6.62437 19.0268C7.99485 22.021 10.2487 24.5241 13.0833 26.2C11.1827 28.3797 8.51369 29.7411 5.63334 30C5.47903 30.0256 5.33658 30.0988 5.22593 30.2093C5.11528 30.3199 5.04196 30.4623 5.01625 30.6166C4.99053 30.7709 5.0137 30.9294 5.08251 31.0698C5.15133 31.2103 5.26234 31.3257 5.40001 31.4C7.90588 32.6523 10.6654 33.3136 13.4667 33.3333Z" fill="url(#paint0_linear_1_30)"/>
</g>
<defs>
<linearGradient id="paint0_linear_1_30" x1="38.5425" y1="13.5785" x2="11.6052" y2="42.1069" gradientUnits="userSpaceOnUse">
<stop offset="0.116" stop-color="#81ACF8"/>
<stop offset="0.556" stop-color="#E088FB"/>
<stop offset="1" stop-color="#FF7AE4"/>
</linearGradient>
<clipPath id="clip0_1_30">
<rect width="40" height="40" fill="white"/>
</clipPath>
</defs>
</svg>
